<svg preserveAspectRatio="none" overflow="visible" style="display: block;" width="230" height="70" viewBox="0 0 230 70" fill="none" xmlns="http://www.w3.org/2000/svg">
<path id="Wave / Left" d="M115 9C146.123 9 173.949 12.8511 193.697 18.8613C203.627 21.8835 211.007 25.3006 215.706 28.6816C220.617 32.2157 221 34.4715 221 35C221 35.5285 220.617 37.7843 215.706 41.3184C211.007 44.6994 203.627 48.1165 193.697 51.1387C173.949 57.1489 146.123 61 115 61C83.8768 61 56.0507 57.1489 36.3027 51.1387C26.373 48.1165 18.9928 44.6994 14.2939 41.3184C9.38257 37.7843 9 35.5285 9 35C9 34.4715 9.38257 32.2157 14.2939 28.6816C18.9928 25.3006 26.373 21.8835 36.3027 18.8613C56.0507 12.8511 83.8768 9 115 9Z" stroke="#DDEFE7" stroke-opacity="0.8" stroke-width="18"/>
</svg>
